<svg width="90" height="89" viewBox="0 0 90 89" fill="none" xmlns="http://www.w3.org/2000/svg">
<g filter="url(#filter0_d_1_1467)">
<circle cx="45" cy="40.7907" r="23.2558" fill="white"/>
<path d="M45 16.3721C31.2142 16.3721 20 27.1961 20 40.5C20 53.8039 31.2142 64.6279 45 64.6279C58.7858 64.6279 70 53.8039 70 40.5C70 27.1961 58.7858 16.3721 45 16.3721ZM54.9386 41.3453L40.3553 50.3933C40.1844 50.5002 39.987 50.5533 39.7917 50.5533C39.6208 50.5533 39.4479 50.512 39.2933 50.4306C38.9575 50.2539 38.75 49.9161 38.75 49.5479V31.452C38.75 31.0839 38.9575 30.7461 39.2933 30.5694C39.6229 30.3946 40.0358 30.4054 40.3553 30.6067L54.9386 39.6547C55.2356 39.8392 55.4167 40.1583 55.4167 40.5C55.4167 40.8416 55.2356 41.1607 54.9386 41.3453Z" fill="#FFA800"/>
</g>
<defs>
<filter id="filter0_d_1_1467" x="0" y="0.37207" width="90" height="88.2559" filterUnits="userSpaceOnUse" color-interpolation-filters="sRGB">
<feFlood flood-opacity="0" result="BackgroundImageFix"/>
<feColorMatrix in="SourceAlpha" type="matrix" values="0 0 0 0 0 0 0 0 0 0 0 0 0 0 0 0 0 0 127 0" result="hardAlpha"/>
<feOffset dy="4"/>
<feGaussianBlur stdDeviation="10"/>
<feColorMatrix type="matrix" values="0 0 0 0 0 0 0 0 0 0 0 0 0 0 0 0 0 0 0.25 0"/>
<feBlend mode="normal" in2="BackgroundImageFix" result="effect1_dropShadow_1_1467"/>
<feBlend mode="normal" in="SourceGraphic" in2="effect1_dropShadow_1_1467" result="shape"/>
</filter>
</defs>
</svg>
