<svg width="131" height="51" viewBox="0 0 131 51" fill="none" xmlns="http://www.w3.org/2000/svg">
<path opacity="0.2" d="M24.979 50.9722C38.7373 50.9722 49.8906 39.58 49.8906 25.527C49.8906 11.474 38.7373 0.0818405 24.979 0.0818405C11.2208 0.0818405 0.067627 11.474 0.067627 25.527C0.067627 39.58 11.2208 50.9722 24.979 50.9722Z" fill="#242A30"/>
<path d="M40.5487 13.9018V10.9405C40.5487 9.29533 39.2602 7.86953 37.5422 7.86953C36.6832 7.86953 35.9315 8.19856 35.3946 8.85662C32.2807 6.77275 28.6298 5.78567 24.979 5.78567C21.3282 5.78567 17.6774 6.88243 14.5635 8.85662C14.0266 8.19856 13.1676 7.86953 12.4159 7.86953C10.8053 7.86953 9.40932 9.18568 9.40932 10.8308V13.7921C7.04702 17.1921 5.65112 21.2502 5.65112 25.4179C5.65112 36.276 14.3487 45.1599 24.979 45.1599C35.6093 45.1599 44.3069 36.276 44.3069 25.4179C44.3069 21.3599 42.911 17.3018 40.5487 13.9018ZM40.4413 33.534C40.4413 35.947 38.5085 38.0308 36.0389 38.0308H28.0929L30.4552 31.9986H32.7102C33.5692 31.7792 34.3208 31.0115 34.5356 30.134V24.1018C34.3208 23.005 33.3545 22.2373 32.1733 22.1276H29.5963C28.3077 22.1276 27.2339 23.2244 27.2339 24.6502H27.1265V31.3405H22.5094V24.1018C22.2946 23.005 21.3282 22.2373 20.147 22.1276H17.5699C16.2814 22.1276 15.2077 23.2244 15.2077 24.6502H15.1004V29.5857H15.2077C15.2077 30.6824 15.9593 31.7792 17.0331 31.9986H19.0733L21.3281 38.0308H13.597C11.2348 38.0308 9.19462 36.0566 9.19462 33.534V16.3147L15.1004 13.0244H34.4282L40.2266 16.3147L40.4413 33.534Z" fill="#242A30"/>
<path d="M15.3152 13.0243L9.40942 16.3146V33.534C9.40942 35.9469 11.3422 38.0307 13.8119 38.0307H21.5431L19.2882 31.9985H17.248C16.1742 31.6694 15.4225 30.6823 15.4225 29.5856H15.3152V24.6501H15.4225C15.4225 23.3339 16.4964 22.1275 17.7849 22.1275H20.362C21.4357 22.1275 22.4021 23.0049 22.7242 24.1017V31.3404H27.3415V24.6501H27.4488C27.4488 23.3339 28.5225 22.1275 29.8111 22.1275H32.3881C33.4619 22.1275 34.4283 23.0049 34.7504 24.1017V30.1339C34.5356 31.0114 33.8914 31.7791 32.925 31.9985H30.6701L28.3078 38.0307H36.2537C38.616 38.0307 40.6561 36.0565 40.6561 33.534V16.2049L34.8579 12.9146H15.3152V13.0243Z" fill="#F6F6F6"/>
<path d="M56.9774 38.4697V29.5858H61.2725C61.1651 30.9019 61.702 32.2181 62.561 33.2052C63.3126 33.9729 64.1716 34.3019 65.2454 34.3019C65.9971 34.3019 66.7487 34.0826 67.1783 33.5342C67.7151 32.9858 67.9298 32.3277 67.9298 31.56C67.9298 30.7923 67.7151 30.0245 67.1783 29.5858C66.3192 28.818 65.3529 28.16 64.3865 27.7213C62.1316 26.7342 60.1987 25.5277 58.3733 23.8826C57.2995 22.6761 56.6552 21.031 56.7626 19.3858C56.6552 17.4116 57.4069 15.4374 58.8028 14.1213C60.0913 12.9148 61.8094 12.2568 63.5274 12.2568C65.3528 12.1471 67.1783 13.1342 68.252 14.6697V12.4761H72.5471V20.3729H68.252C68.1446 19.2761 67.7151 18.289 66.9634 17.5213C66.3192 16.8632 65.4602 16.5342 64.6012 16.5342C63.9569 16.5342 63.3127 16.7535 62.7758 17.1923C62.3463 17.5213 62.0241 18.0697 62.0241 18.7277C62.0241 19.2761 62.2388 19.8245 62.6683 20.2632C63.7421 21.1406 64.9233 21.7987 66.2118 22.2374C67.7151 22.8955 69.111 23.6632 70.5069 24.5407C71.4733 25.1987 72.3323 26.1858 72.8692 27.2826C73.5134 28.489 73.7282 29.8052 73.7282 31.1213C73.8356 33.3148 73.084 35.3987 71.5807 36.9342C70.1848 38.2503 68.3593 38.9084 66.4265 38.9084C64.3864 39.018 62.4537 38.1406 61.2725 36.3858V38.5794H57.0848L56.9774 38.4697Z" fill="#242A30"/>
<path d="M74.6946 38.4693V34.1918H77.7011V16.9725H74.6946V12.5854H97.1364V20.8112H92.197V16.9725H84.3585V23.0047H90.6938V27.3918H84.3585V34.1918H92.197V30.2435H97.1364V38.4693H74.6946Z" fill="#242A30"/>
<path d="M130.96 16.863V12.4759H119.793L114.961 27.721L110.022 12.4759H98.9619V16.863H101.324V34.0823H98.9619V38.3597H108.304V34.0823H105.941V16.863L112.921 38.4694H117.001L123.873 16.863H123.981V34.0823H121.618V38.3597H130.96V34.0823H128.598V16.863H130.96Z" fill="#242A30"/>
</svg>
